<?xml version="1.0" standalone="no"?>
<!DOCTYPE svg PUBLIC "-//W3C//DTD SVG 20010904//EN"
 "http://www.w3.org/TR/2001/REC-SVG-20010904/DTD/svg10.dtd">
<svg version="1.0" xmlns="http://www.w3.org/2000/svg"
 width="512.000000pt" height="512.000000pt" viewBox="0 0 512.000000 512.000000"
 preserveAspectRatio="xMidYMid meet">

<g transform="translate(0.000000,512.000000) scale(0.100000,-0.100000)"
fill="#000000" stroke="none">
<path d="M0 2560 l0 -2560 2560 0 2560 0 0 2560 0 2560 -2560 0 -2560 0 0
-2560z m3755 639 c0 -684 -3 -1256 -7 -1270 -4 -14 -19 -38 -34 -52 -21 -21
-902 -477 -922 -477 -3 0 -2 568 2 1262 8 1346 5 1287 56 1333 27 25 881 455
895 451 7 -2 10 -426 10 -1247z m-1445 -1405 c0 -618 -1 -638 -20 -669 -17
-28 -80 -61 -465 -245 -289 -138 -450 -209 -456 -203 -6 6 -9 242 -7 641 3
622 3 631 24 659 16 21 130 80 465 240 244 116 447 212 452 212 4 1 7 -285 7
-635z"/>
</g>
</svg>
