<svg width="126" height="36" viewBox="0 0 126 36" fill="none" xmlns="http://www.w3.org/2000/svg">
<path fill-rule="evenodd" clip-rule="evenodd" d="M86.9968 9.80382C87.5834 10.3058 88.0027 10.9299 88.2292 11.6876C88.5183 12.653 88.5641 13.6864 88.4625 14.6875C88.3052 16.2608 87.4944 17.4224 86.0718 18.1895C84.8487 18.8495 83.5065 19.0873 82.1328 19.1884C81.2788 19.2511 80.3153 19.2511 79.4606 19.1884C78.087 19.0873 76.7448 18.8495 75.5215 18.1895C74.0991 17.4224 73.289 16.2608 73.1307 14.6875C73.0864 14.2482 73.0871 13.9043 73.0881 13.4786L73.0884 13.2828H77.7314C77.7314 13.3475 77.7313 13.391 77.7311 13.4288C77.7309 13.4912 77.7307 13.5381 77.7314 13.6392C77.7461 14.6199 78.1294 15.1399 79.1119 15.3706C80.1848 15.6247 81.4105 15.6223 82.4816 15.3706C83.4943 15.1314 83.8702 14.5413 83.8879 13.637C83.8846 13.4902 83.8654 13.3393 83.8297 13.185C83.7351 12.7828 83.4272 12.5264 83.0585 12.3392C82.6067 12.1075 81.8965 11.981 81.3087 11.8763L81.3087 11.8763C81.1537 11.8487 81.0073 11.8227 80.8763 11.7966C80.521 11.7256 80.1653 11.6568 79.8097 11.5879L79.8096 11.5879C78.9623 11.4239 78.1153 11.2599 77.2741 11.0683C76.4167 10.8745 75.6096 10.5378 74.8928 10.0306C74.7901 9.95762 74.6925 9.88221 74.5988 9.80382H74.5967C74.01 9.30114 73.5908 8.67769 73.3646 7.91972C73.1686 7.26476 73.0764 6.61739 73.092 5.94181C73.0908 5.65934 73.099 5.38863 73.1307 5.07222C73.289 3.49794 74.0991 2.33749 75.5215 1.5708C76.7448 0.910397 78.087 0.672752 79.4606 0.571541C80.3165 0.508868 81.2764 0.508868 82.1328 0.571541C83.5065 0.672752 84.8487 0.910397 86.0718 1.5708C87.4944 2.33749 88.3052 3.49794 88.4625 5.07222C88.5071 5.51219 88.5064 5.85647 88.5055 6.2822V6.28223V6.28226V6.28229L88.5052 6.47596H83.862C83.862 6.41186 83.8622 6.36851 83.8624 6.33079C83.8626 6.26836 83.8628 6.22133 83.862 6.12111C83.8476 5.14064 83.4638 4.62069 82.4816 4.38967C81.4065 4.13496 80.1863 4.13651 79.1119 4.38967C78.3843 4.56072 77.9861 4.89109 77.8226 5.4489C77.7397 5.73952 77.7461 6.08987 77.8239 6.4218C77.919 6.82417 78.2258 7.08068 78.5944 7.26898C79.0583 7.50576 79.7532 7.63258 80.3342 7.73861C80.4696 7.76332 80.5988 7.78691 80.7175 7.81049C81.0736 7.88155 81.4301 7.95055 81.7866 8.01955L81.7867 8.01958L81.7869 8.01961L81.787 8.01964C82.6331 8.18339 83.4791 8.34713 84.3191 8.53837C85.1768 8.73403 85.9838 9.06924 86.7008 9.57756C86.8035 9.64936 86.9011 9.726 86.9947 9.80382H86.9968ZM103.424 19.0254H108.446L100.909 0.736005H95.8684L88.331 19.0254H93.3532L94.3805 16.5334H102.397L103.424 19.0254ZM120.978 11.0513V0.736943H126V8.70615V19.0264H120.978V19.0252C120.772 18.6618 115.181 8.81368 115.118 8.71105V19.0264H110.095V0.736943H115.118C115.118 0.736943 120.758 10.6717 120.978 11.0513ZM71.186 0.746919V3.30464V9.23969V11.753C71.186 12.7637 71.0427 13.7687 70.7335 14.7311C70.4402 15.6453 69.9749 16.4656 69.3282 17.1714C68.7644 17.7864 68.0982 18.3269 67.3218 18.6403C66.2056 19.0912 64.9659 19.2356 63.7703 19.2356C62.89 19.2356 62.0104 19.1624 61.1374 19.0507C60.3282 18.9468 59.4976 18.7399 58.7829 18.3311C58.1109 17.9468 57.5413 17.4121 57.0623 16.804C56.5851 16.1984 56.2021 15.5205 55.996 14.772C55.7286 13.7987 55.5267 12.7665 55.5267 11.753V0.746919H60.3849V12.3213C60.3849 13.1989 60.5782 13.9201 61.1783 14.5842C61.7552 15.2234 62.5259 15.4651 63.3638 15.4651C64.1939 15.4651 64.9582 15.2262 65.5333 14.5982C66.1406 13.9356 66.3275 13.1992 66.3275 12.3213V9.23969V5.76014V0.746919H71.186ZM49.8143 2.55127C48.9636 2.97339 48.4264 3.83734 48.4264 4.78234V7.39778L48.4239 12.0446C48.4239 12.3659 48.4077 12.6887 48.3708 13.0072C48.2434 14.0895 47.6216 14.7977 46.5328 14.8692H41.7296V18.971C41.7833 18.9746 44.7771 18.9779 44.8144 18.9779C45.1071 18.9776 45.3999 18.9783 45.6929 18.979H45.693H45.6932H45.6936H45.6936C46.4108 18.9808 47.1284 18.9826 47.8461 18.9688C48.5315 18.9564 49.2103 18.8562 49.8729 18.6675C51.2821 18.2663 52.3645 17.4748 52.9585 16.1062C53.3406 15.2277 53.4461 14.2978 53.4469 13.3521V12.9785C53.4469 12.9694 53.4475 12.9602 53.4482 12.951L53.4482 12.951C53.4488 12.9415 53.4494 12.9319 53.4494 12.9221V10.9142V10.169V0.746919L49.8143 2.55127ZM95.7499 13.2085L98.3889 6.80752L101.027 13.2085H95.7499Z" fill="white"/>
<path fill-rule="evenodd" clip-rule="evenodd" d="M30.4248 0H4.80385C2.15579 0 0 2.14118 0 4.77067V30.2152C0 32.845 2.15579 34.9856 4.80385 34.9856H30.4248C33.0745 34.9856 35.2284 32.845 35.2284 30.2152V4.77067C35.2284 2.14118 33.0745 0 30.4248 0ZM23.2976 22.6892C24.295 22.192 24.9258 21.1798 24.9258 20.072V5.79387L20.6626 7.90925C19.6649 8.40584 19.0353 9.41839 19.0353 10.5255V24.8046L23.2976 22.6892ZM14.4613 27.0753C15.4598 26.58 16.0898 25.5674 16.0898 24.46V18.2249L11.8281 20.3403C10.8289 20.8355 10.1993 21.8493 10.1993 22.9567V29.192L14.4613 27.0753Z" fill="white"/>
<path d="M41.6853 25.8414H42.7554V32.3691L47.2304 25.8414H48.2249V34.3032H47.1656V27.7876L42.6798 34.3032H41.6853V25.8414Z" fill="white"/>
<path d="M50.1948 27.8964H51.2325V30.6163H54.4969V27.8964H55.5346V34.3032H54.4969V31.6196H51.2325V34.3032H50.1948V27.8964Z" fill="white"/>
<path d="M61.2382 30.9789C61.9804 31.1884 62.3516 31.7082 62.3516 32.5383C62.3516 33.1024 62.1606 33.5376 61.7787 33.8438C61.404 34.1501 60.8419 34.3032 60.0924 34.3032H57.3361V27.8964H59.9951C60.6725 27.8964 61.2022 28.0414 61.5841 28.3316C61.966 28.6136 62.157 29.0166 62.157 29.5404C62.157 29.8789 62.0741 30.173 61.9084 30.4228C61.7499 30.6646 61.5265 30.85 61.2382 30.9789ZM58.3521 30.6525H59.9087C60.305 30.6525 60.6041 30.5719 60.8058 30.4107C61.0148 30.2496 61.1193 30.0159 61.1193 29.7096C61.1193 29.0972 60.7158 28.7909 59.9087 28.7909H58.3521V30.6525ZM60.0168 33.4087C60.4491 33.4087 60.7734 33.3321 60.9896 33.179C61.2058 33.0259 61.3139 32.7881 61.3139 32.4658C61.3139 32.1353 61.213 31.8896 61.0112 31.7284C60.8167 31.5672 60.5068 31.4866 60.0816 31.4866H58.3521V33.4087H60.0168Z" fill="white"/>
<path d="M68.9372 31.136C68.9372 31.2247 68.93 31.3415 68.9156 31.4866H64.2676C64.3324 32.0507 64.5522 32.5061 64.927 32.8526C65.3089 33.1911 65.7809 33.3603 66.343 33.3603C67.0275 33.3603 67.5788 33.1024 67.9968 32.5866L68.5697 33.3361C68.3102 33.6746 67.986 33.9325 67.5968 34.1098C67.2149 34.2871 66.7861 34.3757 66.3105 34.3757C65.7052 34.3757 65.1684 34.2387 64.7 33.9647C64.2316 33.6827 63.8676 33.2918 63.6082 32.7921C63.356 32.2925 63.2299 31.7284 63.2299 31.0998C63.2299 30.4793 63.3524 29.9192 63.5974 29.4195C63.8496 28.9199 64.1919 28.533 64.6243 28.259C65.0639 27.977 65.5575 27.8359 66.1052 27.8359C66.6528 27.8359 67.1392 27.977 67.5644 28.259C67.9968 28.533 68.3319 28.9199 68.5697 29.4195C68.8147 29.9192 68.9372 30.4913 68.9372 31.136ZM66.1052 28.8151C65.6079 28.8151 65.19 28.9843 64.8513 29.3228C64.5198 29.6613 64.3252 30.1045 64.2676 30.6525H67.9427C67.8851 30.1126 67.6869 29.6734 67.3482 29.3349C67.0167 28.9884 66.6024 28.8151 66.1052 28.8151Z" fill="white"/>
<path d="M72.8277 34.3757C72.244 34.3757 71.7216 34.2347 71.2604 33.9526C70.8064 33.6706 70.4497 33.2837 70.1903 32.7921C69.9309 32.2925 69.8012 31.7284 69.8012 31.0998C69.8012 30.4712 69.9309 29.9111 70.1903 29.4195C70.4497 28.9199 70.8064 28.533 71.2604 28.259C71.7216 27.977 72.244 27.8359 72.8277 27.8359C73.3466 27.8359 73.8078 27.9528 74.2113 28.1865C74.6221 28.4202 74.9392 28.7587 75.1625 29.2019L74.3735 29.7701C74.1933 29.4638 73.9699 29.2342 73.7033 29.081C73.4367 28.9279 73.1412 28.8514 72.8169 28.8514C72.4422 28.8514 72.1035 28.944 71.8009 29.1294C71.5054 29.3147 71.2712 29.5807 71.0983 29.9272C70.9325 30.2657 70.8497 30.6565 70.8497 31.0998C70.8497 31.5511 70.9325 31.95 71.0983 32.2965C71.2712 32.635 71.5054 32.8969 71.8009 33.0823C72.1035 33.2676 72.4422 33.3603 72.8169 33.3603C73.1412 33.3603 73.4367 33.2837 73.7033 33.1306C73.9699 32.9775 74.1933 32.7478 74.3735 32.4416L75.1625 32.9976C74.9392 33.4409 74.6221 33.7834 74.2113 34.0252C73.8078 34.2589 73.3466 34.3757 72.8277 34.3757Z" fill="white"/>
<path d="M80.4856 28.9118H78.3886V34.3032H77.3509V28.9118H75.2539V27.8964H80.4856V28.9118Z" fill="white"/>
<path d="M81.3305 27.8964H82.3682V32.5625L85.8812 27.8964H86.8216V34.3032H85.7839V29.6371L82.2817 34.3032H81.3305V27.8964Z" fill="white"/>
<path d="M94.7376 33.2878V35.8384H93.7539V34.3032H88.6196V27.8964H89.6572V33.2878H92.7919V27.8964H93.8296V33.2878H94.7376Z" fill="white"/>
<path d="M95.8664 27.8964H96.9041V32.5625L100.417 27.8964H101.357V34.3032H100.32V29.6371L96.8176 34.3032H95.8664V27.8964Z" fill="white"/>
<path d="M103.155 27.8964H104.193V32.5625L107.706 27.8964H108.647V34.3032H107.609V29.6371L104.107 34.3032H103.155V27.8964Z" fill="white"/>
</svg>
